# xmcd CD database file
#
# Track frame offsets:
#	182
#	15557
#	32545
#	47822
#	64510
#	81122
#	96822
#	108847
#	123435
#	140470
#	158152
#	171462
#	181580
#	195792
#
# Disc length: 2762 seconds
#
# Revision: 3
# Processed by: cddbd v1.4PL0 Copyright (c) Steve Scherf et al.
# Submitted via: jetAudio 5
#
DISCID=a50ac80e
DTITLE=Jill Sobule - Happy Town
DYEAR=1900
DGENRE=
TTITLE0=Bitter
TTITLE1=Happy Town
TTITLE2=Barren Egg
TTITLE3=Half A Heart
TTITLE4=When My Ship Comes In
TTITLE5=Clever
TTITLE6=I'm So Happy
TTITLE7=Little Guy
TTITLE8=Underachiever
TTITLE9=Love Is Never Equal
TTITLE10=Soldiers Of Christ
TTITLE11=Attic
TTITLE12=Sold My Soul
TTITLE13=Super 8
EXTD=Produced by Brad Jones and Robin Eatonexcept Happy Town, Produced by Mark Goldenberg[entry submitted by Jim Gottlieb(jimmy@info.com)]
EXTT0=
EXTT1=
EXTT2=
EXTT3=
EXTT4=
EXTT5=
EXTT6=
EXTT7=
EXTT8=
EXTT9=
EXTT10=
EXTT11=
EXTT12=
EXTT13=
PLAYORDER=
